<svg xmlns="http://www.w3.org/2000/svg" viewBox="0 0 18 18" shape-rendering="crispEdges">
  <rect width="18" height="18" rx="3" fill="#1e293b"/>
  <!-- 像素小人（与头像同款） -->
  <g transform="translate(1 1)">
    <path d="M4 2h8v1h1v3h1v2h-1v3h-1v1H9v1h4v1h1v2H2v-2h1v-1h4v-1H4v-1H3V8H2V6h1V3h1V2Z" fill="#eac393"/>
    <path d="M4 2h8v1h1v3h1v2h-1v3h-1v1H4v-1H3V8H2V6h1V3h1V2Z" fill="#fff" fill-opacity=".1"/>
    <path d="M5 13H3v1H2v2h12v-2h-1v-1h-2v1h-1v1H6v-1H5v-1Z" fill="#03396c"/>
    <path fill="#fff" d="M4 5h3v2H4zM9 5h3v2H9z"/>
    <path fill="#588387" d="M11 6h1v1h-1zM6 6h1v1H6z"/>
    <path d="M8 10v1h1v-1H8Z" fill="#d29985"/>
    <g fill="#cab188">
      <path d="M3 2h10v2H3zM2 2h1v1H2zM2 1h1v1H2z"/>
      <path d="M2 2h1v1H2zM13 0h1v1h-1zM2 4h1v1H2zM5 0h1v1H5zM4 1h1v1H4zM6 1h1v1H6zM9 1h1v1H9zM8 0h1v1H8zM12 1h1v1h-1zM13 2h1v1h-1z"/>
      <path d="M12 1h1v1h-1zM14 3h1v1h-1zM13 4h1v1h-1zM1 3h1v1H1z"/>
    </g>
  </g>
</svg>
